<mxfile host="app.diagrams.net" agent="Mozilla/5.0 (Macintosh; Intel Mac OS X 10_15_7) AppleWebKit/605.1.15 (KHTML, like Gecko) Version/17.6 Safari/605.1.15" version="24.8.2">
  <diagram name="Seite-1" id="4qPFMpWYrZXkH0cgYJul">
    <mxGraphModel dx="690" dy="480" grid="1" gridSize="10" guides="1" tooltips="1" connect="1" arrows="1" fold="1" page="1" pageScale="1" pageWidth="827" pageHeight="1169" math="0" shadow="0">
      <root>
        <mxCell id="0" />
        <mxCell id="1" parent="0" />
        <mxCell id="aP6iwZflRNog6oREVvGN-31" value="" style="rounded=0;whiteSpace=wrap;html=1;strokeColor=none;fillColor=#FFCCCC;" vertex="1" parent="1">
          <mxGeometry x="827" y="300" width="203" height="130" as="geometry" />
        </mxCell>
        <mxCell id="aP6iwZflRNog6oREVvGN-33" value="" style="rounded=0;whiteSpace=wrap;html=1;strokeColor=none;fillColor=#b1dd8c;" vertex="1" parent="1">
          <mxGeometry x="230" y="300" width="600" height="130" as="geometry" />
        </mxCell>
        <mxCell id="aP6iwZflRNog6oREVvGN-35" value="" style="rounded=0;whiteSpace=wrap;html=1;strokeColor=none;fillColor=#FFFF99;" vertex="1" parent="1">
          <mxGeometry x="30" y="300" width="200" height="130" as="geometry" />
        </mxCell>
        <mxCell id="aP6iwZflRNog6oREVvGN-1" value="Government and regulatory bodies" style="rounded=0;whiteSpace=wrap;html=1;fontSize=15;strokeColor=#aaaaaa;strokeWidth=4;" vertex="1" parent="1">
          <mxGeometry x="60" y="340" width="139" height="38" as="geometry" />
        </mxCell>
        <mxCell id="aP6iwZflRNog6oREVvGN-10" value="" style="edgeStyle=orthogonalEdgeStyle;rounded=0;orthogonalLoop=1;jettySize=auto;html=1;entryX=0;entryY=0;entryDx=0;entryDy=0;exitX=1;exitY=0;exitDx=0;exitDy=0;" edge="1" parent="1" source="aP6iwZflRNog6oREVvGN-2" target="aP6iwZflRNog6oREVvGN-3">
          <mxGeometry relative="1" as="geometry">
            <Array as="points">
              <mxPoint x="450" y="340" />
              <mxPoint x="450" y="340" />
            </Array>
          </mxGeometry>
        </mxCell>
        <mxCell id="aP6iwZflRNog6oREVvGN-2" value="Manufactures" style="rounded=0;whiteSpace=wrap;html=1;fontSize=15;strokeColor=#aaaaaa;strokeWidth=4;" vertex="1" parent="1">
          <mxGeometry x="293.5" y="340" width="139" height="38" as="geometry" />
        </mxCell>
        <mxCell id="aP6iwZflRNog6oREVvGN-3" value="Distributors/retailers" style="rounded=0;whiteSpace=wrap;html=1;fontSize=15;strokeColor=#aaaaaa;strokeWidth=4;" vertex="1" parent="1">
          <mxGeometry x="480" y="340" width="139" height="38" as="geometry" />
        </mxCell>
        <mxCell id="aP6iwZflRNog6oREVvGN-4" value="Recyclers" style="rounded=0;whiteSpace=wrap;html=1;fontSize=15;strokeColor=#AAAAAA;strokeWidth=4;" vertex="1" parent="1">
          <mxGeometry x="660" y="392" width="139" height="38" as="geometry" />
        </mxCell>
        <mxCell id="aP6iwZflRNog6oREVvGN-39" style="edgeStyle=orthogonalEdgeStyle;rounded=0;orthogonalLoop=1;jettySize=auto;html=1;dashed=1;" edge="1" parent="1" source="aP6iwZflRNog6oREVvGN-5" target="aP6iwZflRNog6oREVvGN-37">
          <mxGeometry relative="1" as="geometry" />
        </mxCell>
        <mxCell id="aP6iwZflRNog6oREVvGN-5" value="Customers/consumers" style="rounded=0;whiteSpace=wrap;html=1;fontSize=15;strokeColor=#AAAAAA;strokeWidth=4;" vertex="1" parent="1">
          <mxGeometry x="860" y="340" width="150" height="38" as="geometry" />
        </mxCell>
        <mxCell id="aP6iwZflRNog6oREVvGN-7" value="" style="edgeStyle=orthogonalEdgeStyle;rounded=0;orthogonalLoop=1;jettySize=auto;html=1;strokeWidth=3;endArrow=none;endFill=0;entryX=0;entryY=1;entryDx=0;entryDy=0;exitX=1;exitY=1;exitDx=0;exitDy=0;startArrow=async;startFill=1;" edge="1" parent="1" source="aP6iwZflRNog6oREVvGN-1" target="aP6iwZflRNog6oREVvGN-2">
          <mxGeometry relative="1" as="geometry">
            <mxPoint x="250" y="351" as="sourcePoint" />
            <mxPoint x="303.9999999999999" y="351" as="targetPoint" />
            <Array as="points">
              <mxPoint x="270" y="378" />
              <mxPoint x="270" y="378" />
            </Array>
          </mxGeometry>
        </mxCell>
        <mxCell id="aP6iwZflRNog6oREVvGN-8" value="" style="edgeStyle=orthogonalEdgeStyle;rounded=0;orthogonalLoop=1;jettySize=auto;html=1;strokeWidth=3;endArrow=async;endFill=0;entryX=0;entryY=0;entryDx=0;entryDy=0;exitX=1;exitY=0;exitDx=0;exitDy=0;" edge="1" parent="1" source="aP6iwZflRNog6oREVvGN-1" target="aP6iwZflRNog6oREVvGN-2">
          <mxGeometry relative="1" as="geometry">
            <mxPoint x="250" y="380" as="sourcePoint" />
            <mxPoint x="304" y="380" as="targetPoint" />
            <Array as="points">
              <mxPoint x="270" y="340" />
              <mxPoint x="270" y="340" />
            </Array>
          </mxGeometry>
        </mxCell>
        <mxCell id="aP6iwZflRNog6oREVvGN-13" value="" style="edgeStyle=orthogonalEdgeStyle;rounded=0;orthogonalLoop=1;jettySize=auto;html=1;entryX=1;entryY=1;entryDx=0;entryDy=0;dashed=1;exitX=0;exitY=1;exitDx=0;exitDy=0;" edge="1" parent="1" source="aP6iwZflRNog6oREVvGN-3" target="aP6iwZflRNog6oREVvGN-2">
          <mxGeometry relative="1" as="geometry">
            <mxPoint x="480" y="420" as="sourcePoint" />
            <mxPoint x="427.5" y="398" as="targetPoint" />
            <Array as="points">
              <mxPoint x="450" y="378" />
              <mxPoint x="450" y="378" />
            </Array>
          </mxGeometry>
        </mxCell>
        <mxCell id="aP6iwZflRNog6oREVvGN-17" value="" style="edgeStyle=orthogonalEdgeStyle;rounded=0;orthogonalLoop=1;jettySize=auto;html=1;entryX=1;entryY=0.5;entryDx=0;entryDy=0;dashed=1;exitX=0;exitY=0.5;exitDx=0;exitDy=0;" edge="1" parent="1" source="aP6iwZflRNog6oREVvGN-5" target="aP6iwZflRNog6oREVvGN-3">
          <mxGeometry relative="1" as="geometry">
            <mxPoint x="490" y="388" as="sourcePoint" />
            <mxPoint x="438" y="388" as="targetPoint" />
            <Array as="points">
              <mxPoint x="860" y="360" />
            </Array>
          </mxGeometry>
        </mxCell>
        <mxCell id="aP6iwZflRNog6oREVvGN-18" value="Policies, regulations, incentives and penalties" style="text;html=1;align=center;verticalAlign=middle;whiteSpace=wrap;rounded=0;" vertex="1" parent="1">
          <mxGeometry x="160" y="300" width="170" height="30" as="geometry" />
        </mxCell>
        <mxCell id="aP6iwZflRNog6oREVvGN-19" value="New product" style="text;html=1;align=center;verticalAlign=middle;whiteSpace=wrap;rounded=0;" vertex="1" parent="1">
          <mxGeometry x="400" y="316" width="130" height="30" as="geometry" />
        </mxCell>
        <mxCell id="aP6iwZflRNog6oREVvGN-20" value="New product" style="text;html=1;align=center;verticalAlign=middle;whiteSpace=wrap;rounded=0;" vertex="1" parent="1">
          <mxGeometry x="669" y="316" width="130" height="30" as="geometry" />
        </mxCell>
        <mxCell id="aP6iwZflRNog6oREVvGN-21" value="WEEE" style="text;html=1;align=center;verticalAlign=middle;whiteSpace=wrap;rounded=0;" vertex="1" parent="1">
          <mxGeometry x="810" y="406" width="130" height="30" as="geometry" />
        </mxCell>
        <mxCell id="aP6iwZflRNog6oREVvGN-22" value="WEEE" style="text;html=1;align=center;verticalAlign=middle;whiteSpace=wrap;rounded=0;" vertex="1" parent="1">
          <mxGeometry x="400" y="370" width="130" height="30" as="geometry" />
        </mxCell>
        <mxCell id="aP6iwZflRNog6oREVvGN-24" value="" style="edgeStyle=orthogonalEdgeStyle;rounded=0;orthogonalLoop=1;jettySize=auto;html=1;entryX=0;entryY=0;entryDx=0;entryDy=0;exitX=1;exitY=0;exitDx=0;exitDy=0;" edge="1" parent="1" source="aP6iwZflRNog6oREVvGN-3" target="aP6iwZflRNog6oREVvGN-5">
          <mxGeometry relative="1" as="geometry">
            <mxPoint x="629" y="350" as="sourcePoint" />
            <mxPoint x="670" y="350" as="targetPoint" />
            <Array as="points">
              <mxPoint x="740" y="340" />
              <mxPoint x="740" y="340" />
            </Array>
          </mxGeometry>
        </mxCell>
        <mxCell id="aP6iwZflRNog6oREVvGN-25" value="" style="edgeStyle=orthogonalEdgeStyle;rounded=0;orthogonalLoop=1;jettySize=auto;html=1;entryX=1;entryY=0.5;entryDx=0;entryDy=0;dashed=1;exitX=0.5;exitY=1;exitDx=0;exitDy=0;" edge="1" parent="1" source="aP6iwZflRNog6oREVvGN-5" target="aP6iwZflRNog6oREVvGN-4">
          <mxGeometry relative="1" as="geometry">
            <mxPoint x="670" y="388" as="sourcePoint" />
            <mxPoint x="629" y="388" as="targetPoint" />
            <Array as="points">
              <mxPoint x="935" y="410" />
            </Array>
          </mxGeometry>
        </mxCell>
        <mxCell id="aP6iwZflRNog6oREVvGN-26" value="WEEE" style="text;html=1;align=center;verticalAlign=middle;whiteSpace=wrap;rounded=0;" vertex="1" parent="1">
          <mxGeometry x="664.5" y="354" width="130" height="30" as="geometry" />
        </mxCell>
        <mxCell id="aP6iwZflRNog6oREVvGN-27" value="" style="edgeStyle=orthogonalEdgeStyle;rounded=0;orthogonalLoop=1;jettySize=auto;html=1;dashed=1;exitX=0;exitY=0.5;exitDx=0;exitDy=0;entryX=0.5;entryY=1;entryDx=0;entryDy=0;" edge="1" parent="1" source="aP6iwZflRNog6oREVvGN-4" target="aP6iwZflRNog6oREVvGN-2">
          <mxGeometry relative="1" as="geometry">
            <mxPoint x="620" y="430" as="sourcePoint" />
            <mxPoint x="363" y="380" as="targetPoint" />
            <Array as="points">
              <mxPoint x="660" y="412" />
              <mxPoint x="363" y="412" />
            </Array>
          </mxGeometry>
        </mxCell>
        <mxCell id="aP6iwZflRNog6oREVvGN-28" value="&lt;p style=&quot;text-align: start;&quot;&gt;Sorted and recovered material&lt;/p&gt;" style="text;html=1;align=center;verticalAlign=middle;whiteSpace=wrap;rounded=0;" vertex="1" parent="1">
          <mxGeometry x="380" y="408" width="230" height="30" as="geometry" />
        </mxCell>
        <mxCell id="aP6iwZflRNog6oREVvGN-29" value="&lt;p style=&quot;&quot;&gt;Performance indicators (monitoring of the entire supply chain )&lt;/p&gt;" style="text;html=1;align=center;verticalAlign=middle;whiteSpace=wrap;rounded=0;" vertex="1" parent="1">
          <mxGeometry x="160" y="392" width="170" height="30" as="geometry" />
        </mxCell>
        <mxCell id="aP6iwZflRNog6oREVvGN-32" value="Lower level" style="text;html=1;align=center;verticalAlign=middle;whiteSpace=wrap;rounded=0;fontStyle=1;fontSize=13;" vertex="1" parent="1">
          <mxGeometry x="863.5" y="270" width="130" height="30" as="geometry" />
        </mxCell>
        <mxCell id="aP6iwZflRNog6oREVvGN-34" value="Middle level" style="text;html=1;align=center;verticalAlign=middle;whiteSpace=wrap;rounded=0;fontStyle=1;fontSize=13;" vertex="1" parent="1">
          <mxGeometry x="465" y="270" width="130" height="30" as="geometry" />
        </mxCell>
        <mxCell id="aP6iwZflRNog6oREVvGN-36" value="Upper level" style="text;html=1;align=center;verticalAlign=middle;whiteSpace=wrap;rounded=0;fontSize=13;fontStyle=1" vertex="1" parent="1">
          <mxGeometry x="65" y="270" width="130" height="30" as="geometry" />
        </mxCell>
        <mxCell id="aP6iwZflRNog6oREVvGN-37" value="Informal disposal" style="rounded=0;whiteSpace=wrap;html=1;fontSize=15;strokeColor=#AAAAAA;strokeWidth=4;" vertex="1" parent="1">
          <mxGeometry x="860" y="450" width="150" height="38" as="geometry" />
        </mxCell>
        <mxCell id="aP6iwZflRNog6oREVvGN-38" value="&lt;p style=&quot;font-style: normal; font-variant-caps: normal; font-weight: 400; letter-spacing: normal; orphans: auto; text-align: start; text-indent: 0px; text-transform: none; white-space: normal; widows: auto; word-spacing: 0px; -webkit-text-stroke-width: 0px; text-decoration: none; caret-color: rgb(0, 0, 0); color: rgb(0, 0, 0);&quot;&gt;&lt;br&gt;&lt;/p&gt;" style="text;whiteSpace=wrap;html=1;" vertex="1" parent="1">
          <mxGeometry x="940" y="500" width="120" height="60" as="geometry" />
        </mxCell>
        <mxCell id="aP6iwZflRNog6oREVvGN-40" value="WEEE" style="text;html=1;align=center;verticalAlign=middle;whiteSpace=wrap;rounded=0;" vertex="1" parent="1">
          <mxGeometry x="890" y="408" width="130" height="30" as="geometry" />
        </mxCell>
      </root>
    </mxGraphModel>
  </diagram>
</mxfile>
